<svg xmlns="http://www.w3.org/2000/svg" version="1.1" xmlns:xlink="http://www.w3.org/1999/xlink" xmlns:svgjs="http://svgjs.dev/svgjs" width="1500" height="916" viewBox="0 0 1500 916"><g transform="matrix(1,0,0,1,-0.9090909090909918,-0.30774376126930747)"><svg viewBox="0 0 396 242" data-background-color="#ffffff" preserveAspectRatio="xMidYMid meet" height="916" width="1500" xmlns="http://www.w3.org/2000/svg" xmlns:xlink="http://www.w3.org/1999/xlink"><g id="tight-bounds" transform="matrix(1,0,0,1,0.2400000000000091,0.08130348278075417)"><svg viewBox="0 0 395.52 241.8373930344385" height="241.8373930344385" width="395.52"><g><svg viewBox="0 0 395.52 241.8373930344385" height="241.8373930344385" width="395.52"><g transform="matrix(1,0,0,1,0,174.9824565399423)"><svg viewBox="0 0 395.52 66.85493649449619" height="66.85493649449619" width="395.52"><g id="textblocktransform"><svg viewBox="0 0 395.52 66.85493649449619" height="66.85493649449619" width="395.52" id="textblock"><g><svg viewBox="0 0 395.52 66.85493649449619" height="66.85493649449619" width="395.52"><g transform="matrix(1,0,0,1,0,0)"><svg width="395.52" viewBox="3.91 -38.38 230.64000000000001 38.99" height="66.85493649449619" data-palette-color="#2257bf"><g class="wordmark-text-0" data-fill-palette-color="primary" id="text-0"><path d="M11.35-25.29L11.35-1.29Q11.35-0.56 11.07-0.28 10.79 0 10.08 0L10.08 0 5.18 0Q4.49 0 4.2-0.28 3.91-0.56 3.91-1.29L3.91-1.29 3.91-32.23Q3.91-33.67 4.47-34.34 5.03-35.01 6.45-35.01L6.45-35.01 8.72-35.01Q9.96-35.01 11.07-34.68 12.18-34.35 13.44-33.2 14.7-32.06 16.37-29.65 18.04-27.25 20.41-23.1L20.41-23.1Q22.68-19.14 24.06-16.77 25.44-14.4 26.2-13.16 26.95-11.91 27.33-11.38 27.71-10.84 27.95-10.5L27.95-10.5 27.95-31.1Q27.95-31.81 28.17-32.18L28.17-32.18Q29.22-33.79 31.08-35.57L31.08-35.57Q31.45-35.86 31.69-35.86L31.69-35.86Q31.96-35.86 32.28-35.57L32.28-35.57Q33.28-34.64 33.97-33.8 34.67-32.96 35.18-32.18L35.18-32.18Q35.4-31.79 35.4-31.1L35.4-31.1 35.4-2.03Q35.4-0.93 34.99-0.46 34.57 0 33.47 0L33.47 0 31.13 0Q30.08 0 28.98-0.35 27.88-0.71 26.49-1.97 25.1-3.22 23.19-5.88 21.29-8.54 18.6-13.16L18.6-13.16Q16.33-17.09 14.98-19.41 13.62-21.73 12.92-22.91 12.21-24.1 11.89-24.57 11.57-25.05 11.35-25.29L11.35-25.29ZM54.86 0.61L54.86 0.61Q50.73 0.61 47.68-0.72 44.63-2.05 42.94-4.86 41.26-7.67 41.26-12.11L41.26-12.11Q41.26-18.77 44.68-22.19 48.09-25.61 53.76-25.61L53.76-25.61Q57.44-25.61 60-24.29 62.55-22.97 63.88-20.65 65.21-18.33 65.21-15.36L65.21-15.36Q65.21-12.45 63.72-11.3 62.23-10.16 59.37-10.16L59.37-10.16 48.9-10.16Q49.09-7.64 50.74-6.32 52.39-5 55.22-5L55.22-5Q57.47-5 58.82-5.68 60.18-6.35 60.72-6.74L60.72-6.74Q61.18-7.08 61.77-7.06L61.77-7.06Q62.23-7.06 63.1-6.87 63.96-6.69 64.82-6.2L64.82-6.2Q65.43-5.88 65.43-5.32L65.43-5.32Q65.43-5 65.31-4.42L65.31-4.42Q65.23-4.08 65.06-3.43 64.89-2.78 64.62-2.22L64.62-2.22Q64.48-1.95 64.16-1.71L64.16-1.71Q63.67-1.37 62.58-0.81 61.5-0.24 59.62 0.18 57.74 0.61 54.86 0.61ZM48.85-15.16L48.85-15.16 56.81-15.16Q58.05-15.16 58.05-16.31L58.05-16.31Q58.05-18.04 56.97-19.23 55.88-20.41 53.71-20.41L53.71-20.41Q51.34-20.41 50.23-18.9 49.12-17.38 48.85-15.16ZM74.95-1.78L74.95-1.78Q74.24-2.88 73.43-4.85 72.63-6.81 71.85-9.22 71.06-11.62 70.42-14.03 69.77-16.43 69.38-18.44 68.99-20.46 68.99-21.61L68.99-21.61Q68.99-22.09 69.26-22.41L69.26-22.41Q70.38-23.8 72.46-25.32L72.46-25.32Q72.82-25.56 73.12-25.56L73.12-25.56Q73.43-25.56 73.77-25.32L73.77-25.32Q74.9-24.51 75.67-23.8 76.44-23.1 76.97-22.41L76.97-22.41Q77.24-22.09 77.24-21.51L77.24-21.51 77.24-21.63Q77.24-20.12 77.42-18.14 77.61-16.16 77.95-14.06 78.29-11.96 78.77-10.06 79.24-8.15 79.83-6.79L79.83-6.79 79.98-6.79Q80.61-8.15 81.32-10.35 82.03-12.55 82.67-15 83.32-17.46 83.83-19.63 84.35-21.8 84.57-23.07L84.57-23.07Q84.74-24.02 85.33-24.34 85.93-24.66 87.01-24.66L87.01-24.66 89.84-24.66Q91.06-24.66 91.58-24.29 92.11-23.93 92.23-23.07L92.23-23.07Q92.43-21.75 92.94-19.52 93.45-17.29 94.1-14.79 94.75-12.3 95.41-10.13 96.06-7.96 96.53-6.79L96.53-6.79 96.7-6.79Q97.43-8.4 98.09-10.95 98.75-13.5 99.16-16.33 99.58-19.17 99.58-21.61L99.58-21.61 99.58-21.51Q99.58-22.09 99.82-22.41L99.82-22.41Q100.39-23.1 101.14-23.8 101.9-24.51 102.97-25.32L102.97-25.32Q103.32-25.56 103.61-25.56L103.61-25.56Q103.95-25.56 104.24-25.32L104.24-25.32Q105.34-24.51 106.1-23.8 106.86-23.1 107.39-22.41L107.39-22.41Q107.64-22.09 107.64-21.56L107.64-21.56Q107.61-20.36 107.17-18.37 106.73-16.38 106.01-14.01 105.29-11.65 104.43-9.28 103.56-6.91 102.67-4.93 101.78-2.95 101.02-1.78L101.02-1.78Q100.53-1.03 100.17-0.63 99.8-0.24 99.27-0.12 98.75 0 97.72 0L97.72 0 94.97 0Q93.82 0 93.17-0.33 92.52-0.66 91.96-1.78L91.96-1.78Q91.62-2.44 91.13-3.99 90.64-5.54 90.13-7.39 89.62-9.23 89.23-10.84 88.84-12.45 88.72-13.21L88.72-13.21Q88.59-13.94 88.46-14.99 88.33-16.04 88.28-16.65L88.28-16.65 88.15-16.65Q88.13-16.04 88-15 87.86-13.96 87.71-13.18L87.71-13.18Q87.57-12.5 87.18-11.07 86.79-9.64 86.24-7.92 85.69-6.2 85.09-4.57 84.49-2.93 83.95-1.78L83.95-1.78Q83.42-0.66 82.72-0.33 82.03 0 80.51 0L80.51 0 77.68 0Q76.48 0 76.06-0.37 75.63-0.73 74.95-1.78ZM68.99-21.51L68.99-21.66 68.99-21.61Q68.99-21.56 68.99-21.51L68.99-21.51ZM107.64-21.61L107.64-21.61 107.64-21.51 107.64-21.56Q107.64-21.58 107.64-21.61ZM124.11 0.61L124.11 0.61Q120.96 0.61 118.82 0.15 116.67-0.32 115.2-1 113.74-1.68 112.64-2.37L112.64-2.37 112.64-34.33Q112.64-34.91 112.88-35.23L112.88-35.23Q113.91-36.57 115.89-38.13L115.89-38.13Q116.23-38.38 116.5-38.38L116.5-38.38Q116.81-38.38 117.11-38.13L117.11-38.13Q118.16-37.33 118.88-36.62 119.6-35.91 120.11-35.23L120.11-35.23Q120.35-34.91 120.35-34.33L120.35-34.33 120.35-22.49 120.45-22.49Q121.43-23.73 123.16-24.67 124.89-25.61 128-25.61L128-25.61Q131.46-25.61 133.71-24.01 135.95-22.41 137.05-19.62 138.15-16.82 138.15-13.21L138.15-13.21Q138.15-9.3 136.86-6.16 135.56-3.03 132.5-1.21 129.44 0.61 124.11 0.61ZM124.43-5.3L124.43-5.3Q127.26-5.3 128.75-7.19 130.24-9.08 130.24-12.6L130.24-12.6Q130.24-16.16 128.91-17.77 127.58-19.38 125.07-19.38L125.07-19.38Q123.04-19.38 121.98-18.55 120.92-17.72 120.35-16.46L120.35-16.46 120.35-6.37Q120.89-5.98 121.88-5.64 122.87-5.3 124.43-5.3ZM142.28-33.2L142.28-33.2Q142.28-33.52 142.47-33.76 142.67-34.01 142.98-34.4L142.98-34.4Q143.67-35.18 144.57-36.05 145.47-36.91 146.4-37.72L146.4-37.72Q146.99-38.18 147.28-38.18L147.28-38.18Q147.57-38.18 148.18-37.72L148.18-37.72Q150.16-36.01 151.55-34.4L151.55-34.4Q151.87-34.03 152.08-33.78 152.28-33.52 152.28-33.2L152.28-33.2Q152.28-32.89 152.08-32.64 151.87-32.4 151.53-31.98L151.53-31.98Q150.87-31.23 149.99-30.36 149.11-29.49 148.18-28.71L148.18-28.71Q147.84-28.42 147.65-28.33 147.45-28.25 147.28-28.25L147.28-28.25Q147.11-28.25 146.93-28.33 146.74-28.42 146.35-28.71L146.35-28.71Q145.38-29.49 144.52-30.36 143.67-31.23 142.98-32.03L142.98-32.03Q142.67-32.42 142.47-32.65 142.28-32.89 142.28-33.2ZM151.11-23.71L151.11-1.29Q151.11-0.56 150.81-0.28 150.5 0 149.77 0L149.77 0 144.74 0Q144.01 0 143.7-0.28 143.4-0.56 143.4-1.29L143.4-1.29 143.4-23.71Q143.4-24.44 143.7-24.72 144.01-25 144.74-25L144.74-25 149.77-25Q150.5-25 150.81-24.72 151.11-24.44 151.11-23.71L151.11-23.71ZM170.01 0.61L170.01 0.61Q165.88 0.61 162.83-0.72 159.78-2.05 158.09-4.86 156.41-7.67 156.41-12.11L156.41-12.11Q156.41-18.77 159.83-22.19 163.24-25.61 168.91-25.61L168.91-25.61Q172.59-25.61 175.15-24.29 177.7-22.97 179.03-20.65 180.36-18.33 180.36-15.36L180.36-15.36Q180.36-12.45 178.87-11.3 177.38-10.16 174.52-10.16L174.52-10.16 164.05-10.16Q164.25-7.64 165.89-6.32 167.54-5 170.37-5L170.37-5Q172.62-5 173.97-5.68 175.33-6.35 175.87-6.74L175.87-6.74Q176.33-7.08 176.92-7.06L176.92-7.06Q177.38-7.06 178.25-6.87 179.11-6.69 179.97-6.2L179.97-6.2Q180.58-5.88 180.58-5.32L180.58-5.32Q180.58-5 180.46-4.42L180.46-4.42Q180.38-4.08 180.21-3.43 180.04-2.78 179.77-2.22L179.77-2.22Q179.63-1.95 179.31-1.71L179.31-1.71Q178.82-1.37 177.73-0.81 176.65-0.24 174.77 0.18 172.89 0.61 170.01 0.61ZM164-15.16L164-15.16 171.96-15.16Q173.21-15.16 173.21-16.31L173.21-16.31Q173.21-18.04 172.12-19.23 171.03-20.41 168.86-20.41L168.86-20.41Q166.49-20.41 165.38-18.9 164.27-17.38 164-15.16ZM197.71 0.61L197.71 0.61Q191.56 0.61 187.97-2.66 184.38-5.93 184.38-12.4L184.38-12.4Q184.38-19.04 188.11-22.33 191.83-25.61 198.06-25.61L198.06-25.61Q204.06-25.61 207.68-22.38 211.29-19.14 211.29-12.84L211.29-12.84Q211.29-6.27 207.68-2.83 204.06 0.61 197.71 0.61ZM197.96-5.3L197.96-5.3Q200.64-5.3 202.01-6.97 203.38-8.64 203.38-12.7L203.38-12.7Q203.38-16.55 202-18.13 200.62-19.7 197.91-19.7L197.91-19.7Q195.3-19.7 193.8-18.01 192.29-16.31 192.29-12.5L192.29-12.5Q192.29-8.52 193.72-6.91 195.15-5.3 197.96-5.3ZM223.49 0.61L223.49 0.61Q220.88 0.61 219.16 0.17 217.44-0.27 216.4-0.89 215.36-1.51 214.78-2.03L214.78-2.03Q214.34-2.44 214.68-2.95L214.68-2.95 217.17-6.64Q217.71-7.42 218.39-6.74L218.39-6.74Q219.1-6.05 220.31-5.41 221.52-4.76 223.32-4.76L223.32-4.76Q224.93-4.76 225.97-5.31 227.01-5.86 227.01-6.91L227.01-6.91Q227.01-7.64 226.55-8.11 226.08-8.57 224.91-9.06 223.74-9.55 221.64-10.3L221.64-10.3Q218.54-11.43 216.95-13.01 215.36-14.6 215.36-17.65L215.36-17.65Q215.36-20.46 216.91-22.22 218.46-23.97 220.89-24.79 223.32-25.61 225.96-25.61L225.96-25.61Q229.3-25.61 230.66-24.99 232.01-24.37 232.4-24.02L232.4-24.02Q232.77-23.71 232.92-23.29L232.92-23.29Q233.23-22.34 233.41-20.78L233.41-20.78Q233.5-19.87 232.94-19.58L232.94-19.58Q232.65-19.41 232.01-19.21 231.38-19.02 230.74-18.87 230.11-18.73 229.79-18.73L229.79-18.73Q229.69-18.73 229.58-18.79 229.47-18.85 229.21-19.09L229.21-19.09Q228.89-19.41 228.12-19.82 227.35-20.24 226.01-20.24L226.01-20.24Q224.69-20.24 223.8-19.81 222.91-19.38 222.91-18.31L222.91-18.31Q222.91-17.14 224.04-16.55 225.18-15.97 227.79-15.04L227.79-15.04Q229.84-14.33 231.37-13.49 232.89-12.65 233.72-11.29 234.55-9.94 234.55-7.64L234.55-7.64Q234.55-4.66 232.93-2.84 231.31-1.03 228.78-0.21 226.25 0.61 223.49 0.61Z" fill="#2257bf" data-fill-palette-color="primary"></path></g></svg></g></svg></g></svg></g></svg></g><g transform="matrix(1,0,0,1,126.05161771790353,0)"><svg viewBox="0 0 143.41676456419293 143.41676456419293" height="143.41676456419293" width="143.41676456419293"><g><svg></svg></g><g id="icon-0"><svg viewBox="0 0 143.41676456419293 143.41676456419293" height="143.41676456419293" width="143.41676456419293"><g><path d="M0 71.708c0-39.603 32.105-71.708 71.708-71.708 39.603 0 71.708 32.105 71.709 71.708 0 39.603-32.105 71.708-71.709 71.709-39.603 0-71.708-32.105-71.708-71.709zM71.708 137.388c36.274 0 65.679-29.406 65.68-65.68 0-36.274-29.406-65.679-65.68-65.679-36.274 0-65.679 29.406-65.679 65.679 0 36.274 29.406 65.679 65.679 65.68z" data-fill-palette-color="accent" fill="#2257bf" stroke="transparent"></path></g><g transform="matrix(1,0,0,1,33.800598974879826,33.04383728722759)"><svg viewBox="0 0 75.81556661443328 77.32908998973775" height="77.32908998973775" width="75.81556661443328"><g><svg xmlns="http://www.w3.org/2000/svg" xmlns:xlink="http://www.w3.org/1999/xlink" version="1.1" x="0" y="0" viewBox="2.646 2 64.70537447081809 65.9971025570495" style="enable-background:new 0 0 70 70;" xml:space="preserve" height="77.32908998973775" width="75.81556661443328" class="icon-dxe-0" data-fill-palette-color="accent" id="dxe-0"><path d="M3.646 63.984H52.567A1 1 0 0 0 53.567 62.984V59.812L58.807 66.1C59.844 67.345 61.322 67.997 62.773 67.997A4.56 4.56 0 0 0 65.711 66.95C67.727 65.27 67.91 62.153 66.12 60.004L62.738 55.946 60.27 52.984A1 1 0 0 0 59.592 52.628 1.03 1.03 0 0 0 58.862 52.856L56.793 54.58 55.18 52.644A13.5 13.5 0 0 0 59.289 44.09 13.53 13.53 0 0 0 56.187 34.137 13.6 13.6 0 0 0 53.567 31.74V3A1 1 0 0 0 52.567 2H3.646A1 1 0 0 0 2.646 3V62.984A1 1 0 0 0 3.646 63.984M64.43 65.414C63.26 66.386 61.428 66.12 60.342 64.818L57.601 61.529 61.84 57.993 64.584 61.284C65.668 62.587 65.6 64.439 64.431 65.415M59.374 55.032L60.562 56.458 56.32 59.992 55.133 58.567 57.305 56.757zM53.567 57.268V53.99C53.595 53.97 53.62 53.948 53.647 53.93L55.257 55.86zM54.651 35.418A11.54 11.54 0 0 1 57.297 43.91 11.55 11.55 0 0 1 53.163 51.785 11.53 11.53 0 0 1 44.67 54.431 11.54 11.54 0 0 1 36.795 50.297C32.693 45.374 33.36 38.03 38.284 33.929 43.206 29.826 50.548 30.494 54.65 35.417M4.646 4H51.567V30.57C46.917 28.367 41.21 28.888 37.003 32.393A13.5 13.5 0 0 0 33.77 36.35H11.487A1 1 0 0 0 11.487 38.35H32.89A13.7 13.7 0 0 0 32.174 44.195H11.487A1 1 0 0 0 11.487 46.195H32.535A13.5 13.5 0 0 0 35.259 51.577C35.397 51.743 35.549 51.891 35.693 52.05H11.484A1 1 0 0 0 11.484 54.05H37.728C37.795 54.05 37.854 54.024 37.918 54.011A13.5 13.5 0 0 0 44.49 56.422 13.5 13.5 0 0 0 51.568 55.161V61.984H4.645z" fill="#2257bf" data-fill-palette-color="accent"></path><path d="M13.802 31.238C13.807 31.238 13.81 31.235 13.814 31.235H23.73C23.734 31.235 23.737 31.238 23.742 31.238L23.754 31.235H27.93A1 1 0 0 0 28.93 30.235V25.265C28.93 21.625 26.37 18.635 22.963 18.277H22.955C22.932 18.273 22.91 18.268 22.888 18.266 22.836 18.262 22.79 18.279 22.74 18.282 22.671 18.286 22.604 18.286 22.538 18.303 22.47 18.321 22.411 18.354 22.348 18.386 22.298 18.412 22.245 18.433 22.199 18.469 22.135 18.515 22.09 18.573 22.04 18.632 22.012 18.666 21.974 18.688 21.95 18.727 21.26 19.816 20.07 20.466 18.77 20.466S16.28 19.816 15.59 18.726C15.568 18.694 15.535 18.675 15.51 18.644A1 1 0 0 0 15.34 18.466C15.297 18.434 15.25 18.416 15.202 18.391 15.137 18.357 15.075 18.322 15.002 18.303 14.936 18.286 14.869 18.286 14.8 18.283 14.75 18.278 14.704 18.261 14.652 18.266L14.586 18.277H14.577C11.171 18.636 8.61 21.624 8.61 25.265V30.235A1 1 0 0 0 9.61 31.235H13.79zM10.61 25.265C10.61 22.876 12.2 20.84 14.31 20.363 15.396 21.69 17.017 22.466 18.77 22.466S22.144 21.69 23.229 20.363C25.339 20.84 26.93 22.876 26.93 25.265V29.235H24.742V25.378A1 1 0 0 0 22.742 25.378V29.235H14.802V25.378A1 1 0 0 0 12.802 25.378V29.235H10.61z" fill="#2257bf" data-fill-palette-color="accent"></path><path d="M18.77 17.483C21.833 17.483 24.324 14.99 24.324 11.929S21.833 6.375 18.77 6.375 13.216 8.866 13.216 11.929 15.708 17.483 18.77 17.483M18.77 8.375A3.56 3.56 0 0 1 22.324 11.929C22.324 13.889 20.73 15.483 18.77 15.483S15.216 13.889 15.216 11.929A3.56 3.56 0 0 1 18.77 8.375" fill="#2257bf" data-fill-palette-color="accent"></path><path d="M42.352 34.817A1 1 0 0 0 43.59 35.5 7.67 7.67 0 0 1 51.606 37.955 0.997 0.997 0 0 0 53.015 38.083 1 1 0 0 0 53.143 36.674 9.66 9.66 0 0 0 43.035 33.58 1 1 0 0 0 42.352 34.817" fill="#2257bf" data-fill-palette-color="accent"></path></svg></g></svg></g></svg></g></svg></g><g></g></svg></g><defs></defs></svg><rect width="395.52" height="241.8373930344385" fill="none" stroke="none" visibility="hidden"></rect></g></svg></g></svg>